# xmcd
#
# Track frame offsets: 
#        182
#        19287
#        36252
#        49802
#        65272
#        79322
#        91622
#        109257
#        125802
#        143900
#        161842
#        176312
#        192115
#        205960
#        223762
#        235215
#        253365
#        267115
#        283700
#        299365
#        315082
#        326967
#        342530
#
# Disc length: 4786 seconds
#
# Revision: 8
# Processed by: cddbd v1.5.2PL0 Copyright (c) Steve Scherf et al.
# Submitted via: ExactAudioCopyFreeDBPlugin 1.0
#
DISCID=6712b017
DTITLE=Various Artist - Can You Dig It?:  The '70s Soul Experience [R
DTITLE=hino box set]
DYEAR=2001
DGENRE=Soul
TTITLE0=The Spinners - Could it Be I'm Falling in Love
TTITLE1=Bill Withers - Use Me
TTITLE2=The O'Jays - Love Train
TTITLE3=Timmy Thomas - Why Can't We Live Together
TTITLE4=The Four Tops - Ain't No Woman (Like the One I've Got)
TTITLE5=New York City - I'm Doin' Fine Now
TTITLE6=Sylvia - Pillow Talk
TTITLE7=Tower of Power - So Very Hard to Go
TTITLE8=Bloodstone - Natural High
TTITLE9=Marvin Gaye - Let's Get it On
TTITLE10=The Isley Brothers - That Lady, Part I
TTITLE11=Eddie Kendricks - Keep on Truckin', Part I
TTITLE12=Millie Jackson - Hurts So Good
TTITLE13=Gladys Knight and The Pips - Midnight Train to Georgia
TTITLE14=Ann Peebles - I Can't Stand the Rain
TTITLE15=War - The World is a Ghetto
TTITLE16=El Chicano - Tell Her She's Lovely
TTITLE17=Harold Melvin and The Blue Notes - The Love I Lost, Part I
TTITLE18=Johnnie Taylor - Cheaper to Keep Her
TTITLE19=Al Wilson - Show and Tell
TTITLE20=Bobby Womack - Lookin' for a Love
TTITLE21=William DeVaughn - Be Thankful for What You Got
TTITLE22=The Main Ingredient - Just Don't Want to Be Lonely
EXTD=
EXTT0=
EXTT1=
EXTT2=
EXTT3=
EXTT4=
EXTT5=
EXTT6=
EXTT7=
EXTT8=
EXTT9=
EXTT10=
EXTT11=
EXTT12=
EXTT13=
EXTT14=
EXTT15=
EXTT16=
EXTT17=
EXTT18=
EXTT19=
EXTT20=
EXTT21=
EXTT22=
PLAYORDER=
